<?xml version="1.0" encoding="UTF-8"?>
<svg id="Layer_1" data-name="Layer 1" xmlns="http://www.w3.org/2000/svg" version="1.1" viewBox="0 0 841.9 761">
  <defs>
    <style>
      .cls-1 {
        fill: #1d1d1b;
        stroke-width: 0px;
      }
    </style>
  </defs>
  <path class="cls-1" d="M74.3,208.2c-21.9,0-33.4-8.3-35.4-25.8H2.8c2.3,32.5,29.1,53.6,70.9,53.6s67.5-19.2,67.5-51.7-15.6-37.7-61.6-49.7c-29.8-7.6-37.1-13.2-37.1-23.8s10.9-19.9,27.1-19.9,30.8,8.6,32.1,25.5h35.1c-1-32.4-26.8-52.6-64.9-52.6S8.4,83.7,8.4,114.2s14.2,37.1,53.6,47.3c34.8,9.3,42.7,14.2,42.7,26.2s-10.6,20.5-30.5,20.5Z"/>
  <path class="cls-1" d="M210,176.7v-81.8h43.4v-27.8h-43.4V27.1h-36.4v40.1h-27.8v27.8h27.8v87.1c0,35.8,17.5,54,53.6,54s17.6-1.3,26.5-3.6v-29.8c-6.3,1.7-12.6,2.3-17.5,2.3-17.6,0-26.2-9.9-26.2-28.1Z"/>
  <path class="cls-1" d="M375,163.8c-1.3,30.1-14.9,47-38.4,47s-31.4-13.2-31.4-39.1v-99.7h-36.4v104c0,41.7,20.2,64.9,56.3,64.9s41.1-9.6,52-28.5v25.2h34.4V72.1h-36.4v91.7Z"/>
  <path class="cls-1" d="M502.6,236c21.9,0,37.4-8.9,49.3-29.8v26.5h34.1V7.6h-36.1v82.1c-11.9-18.5-26.2-25.8-48-25.8-42,0-70.2,34.1-70.2,86.4s26.8,85.8,70.8,85.8ZM509.2,93.6c24.5,0,40.7,22.5,40.7,56.3s-16.2,56-40.7,56-39.7-21.5-39.7-56,15.6-56.3,39.7-56.3Z"/>
  <path class="cls-1" d="M617.7,698.4c0,18.2-5,26.2-19.2,26.2s-5-.3-8.9-1v28.8c4.3,1.3,9.6,2,15.2,2,33.8,0,49.3-18.2,49.3-56.9v-31.3h-36.4v32.3Z"/>
  <polygon class="cls-1" points="654.1 357.9 654.1 357.9 654.1 72.1 617.7 72.1 617.7 338.1 617.7 338.1 617.7 638.4 654.1 638.4 654.1 357.9"/>
  <path class="cls-1" d="M635.3,49.6c12.2,0,22.2-9.9,22.2-22.2s-9.9-22.2-22.2-22.2-22.5,9.9-22.5,22.2,10.3,22.2,22.5,22.2Z"/>
  <polygon class="cls-1" points="276 438.2 410.4 438.2 410.4 410.1 319.7 410.1 408.4 297.5 408.4 272.7 277.3 272.7 277.3 300.5 363.7 300.5 276 413.7 276 438.2"/>
  <path class="cls-1" d="M486.9,441.2c20.9,0,38.1-7.9,47-24.5,3,17.2,15.6,24.5,31.5,24.5s15.6-2.3,21.8-6v-25.5c-3,1.7-5.6,2.3-8.9,2.3-6,0-9.9-3.6-9.9-12.3v-77.1c0-32.8-20.9-53.3-61.9-53.3s-67.9,17.9-66.9,50.7h36.4c-2-16.2,10.3-24.2,28.1-24.2s27.8,8.6,27.8,27.1v12.9h-31.1c-44.7,0-70.2,22.8-70.2,55s25.8,50.3,56.3,50.3ZM505.1,360.1h26.8v13.2c0,26.8-14.9,40.1-35.8,40.1s-29.1-10.6-29.1-25.8,12.9-27.5,38.1-27.5Z"/>
  <path class="cls-1" d="M125.9,492.4c-11.9-18.5-26.2-25.8-48-25.8-42,0-70.2,34.1-70.2,86.4s26.8,85.8,70.9,85.8,37.4-8.9,49.3-29.8v26.5h34.1v-225.1h-36.1v82.1ZM85.2,608.6c-24.2,0-39.7-21.5-39.7-56s15.6-56.3,39.7-56.3,40.7,22.5,40.7,56.3-16.2,56-40.7,56Z"/>
  <path class="cls-1" d="M224.6,403c-12.3,0-22.5,9.9-22.5,22.2s10.3,22.2,22.5,22.2,22.2-9.9,22.2-22.2-9.9-22.2-22.2-22.2Z"/>
  <rect class="cls-1" x="207.1" y="469.9" width="36.4" height="165.5"/>
  <polygon class="cls-1" points="409.4 494.7 409.4 469.9 278.3 469.9 278.3 497.7 364.7 497.7 276.9 610.9 276.9 635.4 411.4 635.4 411.4 607.3 320.6 607.3 409.4 494.7"/>
  <path class="cls-1" d="M588.2,607c-3,1.7-5.6,2.3-8.9,2.3-6,0-9.9-3.6-9.9-12.3v-77.1c0-32.8-20.9-53.3-61.9-53.3s-67.9,17.9-66.9,50.7h36.4c-2-16.2,10.3-24.2,28.1-24.2s27.8,8.6,27.8,27.1v12.9h-31.1c-44.7,0-70.2,22.8-70.2,55s25.8,50.3,56.3,50.3,38.1-7.9,47-24.5c3,17.2,15.6,24.5,31.4,24.5s15.6-2.3,21.9-6v-25.5ZM532.9,570.5c0,26.8-14.9,40.1-35.7,40.1s-29.1-10.6-29.1-25.8,12.9-27.5,38.1-27.5h26.8v13.2Z"/>
  <path class="cls-1" d="M773.5,466.6c-24.2,0-42,9.6-52,29.1v-25.8h-34.4v165.5h36.4v-93.4c1.3-30.5,15.2-45.4,38.4-45.4s31.4,13.2,31.4,39.1v99.7h36.4v-104c0-41.7-20.2-64.9-56.3-64.9Z"/>
  <path class="cls-1" d="M758.8,236.3c46.8,0,80.3-36.6,80.3-88.1s-33.5-88.1-80.3-88.1-81,36.9-81,88.1,33.9,88.1,81,88.1ZM758.8,89.9c25.8,0,41.7,21.7,41.7,58.3s-15.9,58.3-41.7,58.3-42-22.4-42-58.3,15.9-58.3,42-58.3Z"/>
</svg>