<?xml version="1.0" encoding="UTF-8"?>
<svg id="Layer_1" xmlns="http://www.w3.org/2000/svg" version="1.1" viewBox="0 0 841.9 761">
  <!-- Generator: Adobe Illustrator 29.0.0, SVG Export Plug-In . SVG Version: 2.1.0 Build 186)  -->
  <defs>
    <style>
      .st0 {
        fill: #1d1d1b;
      }
    </style>
  </defs>
  <path class="st0" d="M258.2,579.7c-78.2,0-119.3-29.7-126.5-92.2H2.8c8.2,116.1,104,191.5,253.3,191.5s241.1-68.6,241.1-184.7-55.7-134.7-220.1-177.6c-106.5-27.2-132.5-47.2-132.5-85s38.9-71.1,96.8-71.1,110,30.7,114.7,91.1h125.4c-3.6-115.8-95.7-187.9-231.9-187.9S22.8,134.9,22.8,243.9s50.7,132.5,191.5,169c124.3,33.2,152.5,50.7,152.5,93.6s-37.9,73.2-109,73.2h.4Z"/>
</svg>